<svg aria-hidden="true" style="width:0;height:0;position:absolute;overflow:hidden" xmlns="http://www.w3.org/2000/svg"><defs><symbol id="icon-edit_pen_pencil_write_writing_icon" viewBox="0 0 24 24"><path d="M1.5 21.75h-.005a.75.75 0 0 1-.745-.836v.003l.578-5.25a.753.753 0 0 1 .217-.442l12.27-12.27c.434-.435 1.035-.705 1.699-.705s1.264.269 1.699.705l2.333 2.333c.435.434.705 1.035.705 1.699s-.269 1.264-.705 1.699L7.283 20.949a.742.742 0 0 1-.439.217H6.84l-5.25.577zm5.25-1.335zm-3.953-4.328-.45 4.065 4.065-.45L18.487 7.627a.895.895 0 0 0 0-1.274l-2.34-2.34a.895.895 0 0 0-1.275 0z"/><path d="M17.25 10.658h-.004a.744.744 0 0 1-.528-.218L12.06 5.768a.753.753 0 1 1 1.065-1.065l4.672 4.673a.748.748 0 0 1 0 1.065.746.746 0 0 1-.528.218h-.02.001zM6.225 15.217l5.839-5.839 1.061 1.061-5.839 5.839-1.061-1.061zM22.5 21.75h-12a.75.75 0 0 1 0-1.5h12a.75.75 0 0 1 0 1.5z"/></symbol><symbol id="icon-edit" viewBox="0 0 24 24"><path d="M11 3H4a2.997 2.997 0 0 0-3 3v14a2.997 2.997 0 0 0 3 3h14a2.997 2.997 0 0 0 3-3v-7a1 1 0 0 0-2 0v7c0 .276-.111.525-.293.707S18.276 21 18 21H4c-.276 0-.525-.111-.707-.293S3 20.276 3 20V6c0-.276.111-.525.293-.707S3.724 5 4 5h7a1 1 0 0 0 0-2zm6.793-1.207-9.5 9.5a.992.992 0 0 0-.263.465l-1 4a1 1 0 0 0 1.213 1.213l4-1c.167-.041.33-.129.465-.263l9.5-9.5c.609-.609.914-1.41.914-2.207s-.305-1.598-.914-2.207a3.119 3.119 0 0 0-4.415-.001zm1.414 1.414c.219-.219.504-.328.793-.328s.574.109.793.328.328.504.328.793-.109.574-.328.793l-9.304 9.304-2.114.529.529-2.114z"/></symbol><symbol id="icon-x" viewBox="0 0 24 24"><path d="M5.293 6.707 10.586 12l-5.293 5.293a.999.999 0 1 0 1.414 1.414L12 13.414l5.293 5.293a.999.999 0 1 0 1.414-1.414L13.414 12l5.293-5.293a.999.999 0 1 0-1.414-1.414L12 10.586 6.707 5.293a.999.999 0 1 0-1.414 1.414z"/></symbol><symbol id="icon-x-square" viewBox="0 0 24 24"><path d="M5 2a2.997 2.997 0 0 0-3 3v14a2.997 2.997 0 0 0 3 3h14a2.997 2.997 0 0 0 3-3V5a2.997 2.997 0 0 0-3-3zm0 2h14c.276 0 .525.111.707.293S20 4.724 20 5v14c0 .276-.111.525-.293.707S19.276 20 19 20H5c-.276 0-.525-.111-.707-.293S4 19.276 4 19V5c0-.276.111-.525.293-.707S4.724 4 5 4zm9.293 4.293L12 10.586 9.707 8.293a.999.999 0 1 0-1.414 1.414L10.586 12l-2.293 2.293a.999.999 0 1 0 1.414 1.414L12 13.414l2.293 2.293a.999.999 0 1 0 1.414-1.414L13.414 12l2.293-2.293a.999.999 0 1 0-1.414-1.414z"/></symbol><symbol id="icon-pencil" viewBox="0 0 32 32"><path d="M27 0a5 5 0 0 1 4 8l-2 2-7-7 2-2c.836-.628 1.874-1 3-1zM2 23l-2 9 9-2 18.5-18.5-7-7L2 23zm20.362-11.638-14 14-1.724-1.724 14-14 1.724 1.724z"/></symbol></defs></svg>