<svg aria-hidden="true" style="position: absolute; width: 0; height: 0; overflow: hidden;" version="1.1" xmlns="http://www.w3.org/2000/svg" xmlns:xlink="http://www.w3.org/1999/xlink">
<defs>
<symbol id="icon-edit_pen_pencil_write_writing_icon" viewBox="0 0 24 24">
<path d="M1.5 21.75c-0.001 0-0.003 0-0.005 0-0.414 0-0.75-0.336-0.75-0.75 0-0.029 0.002-0.058 0.005-0.086l-0 0.003 0.578-5.25c0.022-0.174 0.101-0.327 0.217-0.442l12.27-12.27c0.434-0.435 1.035-0.705 1.699-0.705s1.264 0.269 1.699 0.705l2.333 2.333c0.435 0.434 0.705 1.035 0.705 1.699s-0.269 1.264-0.705 1.699l-12.263 12.263c-0.115 0.117-0.268 0.196-0.439 0.217l-0.004 0-5.25 0.577zM6.75 20.415v0zM2.797 16.087l-0.45 4.065 4.065-0.45 12.075-12.075c0.164-0.163 0.265-0.388 0.265-0.637s-0.101-0.475-0.265-0.637l-2.34-2.34c-0.163-0.164-0.388-0.265-0.638-0.265s-0.475 0.101-0.637 0.265l-0 0z"></path>
<path d="M17.25 10.658c-0.001 0-0.003 0-0.004 0-0.206 0-0.393-0.083-0.528-0.218l0 0-4.658-4.672c-0.136-0.136-0.221-0.325-0.221-0.533 0-0.416 0.337-0.753 0.753-0.753 0.208 0 0.396 0.084 0.533 0.221l4.672 4.673c0.137 0.136 0.222 0.324 0.222 0.533s-0.085 0.397-0.222 0.532l-0 0c-0.136 0.135-0.322 0.218-0.528 0.218-0.007 0-0.013-0-0.020-0l0.001 0z"></path>
<path d="M6.225 15.217l5.839-5.839 1.061 1.061-5.839 5.839-1.061-1.061z"></path>
<path d="M22.5 21.75h-12c-0.414 0-0.75-0.336-0.75-0.75s0.336-0.75 0.75-0.75v0h12c0.414 0 0.75 0.336 0.75 0.75s-0.336 0.75-0.75 0.75v0z"></path>
</symbol>
<symbol id="icon-edit" viewBox="0 0 24 24">
<path d="M11 3h-7c-0.828 0-1.58 0.337-2.121 0.879s-0.879 1.293-0.879 2.121v14c0 0.828 0.337 1.58 0.879 2.121s1.293 0.879 2.121 0.879h14c0.828 0 1.58-0.337 2.121-0.879s0.879-1.293 0.879-2.121v-7c0-0.552-0.448-1-1-1s-1 0.448-1 1v7c0 0.276-0.111 0.525-0.293 0.707s-0.431 0.293-0.707 0.293h-14c-0.276 0-0.525-0.111-0.707-0.293s-0.293-0.431-0.293-0.707v-14c0-0.276 0.111-0.525 0.293-0.707s0.431-0.293 0.707-0.293h7c0.552 0 1-0.448 1-1s-0.448-1-1-1zM17.793 1.793l-9.5 9.5c-0.122 0.121-0.217 0.28-0.263 0.465l-1 4c-0.039 0.15-0.042 0.318 0 0.485 0.134 0.536 0.677 0.862 1.213 0.728l4-1c0.167-0.041 0.33-0.129 0.465-0.263l9.5-9.5c0.609-0.609 0.914-1.41 0.914-2.207s-0.305-1.598-0.914-2.207-1.411-0.915-2.208-0.915-1.598 0.305-2.207 0.914zM19.207 3.207c0.219-0.219 0.504-0.328 0.793-0.328s0.574 0.109 0.793 0.328 0.328 0.504 0.328 0.793-0.109 0.574-0.328 0.793l-9.304 9.304-2.114 0.529 0.529-2.114z"></path>
</symbol>
<symbol id="icon-x" viewBox="0 0 24 24">
<path d="M5.293 6.707l5.293 5.293-5.293 5.293c-0.391 0.391-0.391 1.024 0 1.414s1.024 0.391 1.414 0l5.293-5.293 5.293 5.293c0.391 0.391 1.024 0.391 1.414 0s0.391-1.024 0-1.414l-5.293-5.293 5.293-5.293c0.391-0.391 0.391-1.024 0-1.414s-1.024-0.391-1.414 0l-5.293 5.293-5.293-5.293c-0.391-0.391-1.024-0.391-1.414 0s-0.391 1.024 0 1.414z"></path>
</symbol>
<symbol id="icon-x-square" viewBox="0 0 24 24">
<path d="M5 2c-0.828 0-1.58 0.337-2.121 0.879s-0.879 1.293-0.879 2.121v14c0 0.828 0.337 1.58 0.879 2.121s1.293 0.879 2.121 0.879h14c0.828 0 1.58-0.337 2.121-0.879s0.879-1.293 0.879-2.121v-14c0-0.828-0.337-1.58-0.879-2.121s-1.293-0.879-2.121-0.879zM5 4h14c0.276 0 0.525 0.111 0.707 0.293s0.293 0.431 0.293 0.707v14c0 0.276-0.111 0.525-0.293 0.707s-0.431 0.293-0.707 0.293h-14c-0.276 0-0.525-0.111-0.707-0.293s-0.293-0.431-0.293-0.707v-14c0-0.276 0.111-0.525 0.293-0.707s0.431-0.293 0.707-0.293zM14.293 8.293l-2.293 2.293-2.293-2.293c-0.391-0.391-1.024-0.391-1.414 0s-0.391 1.024 0 1.414l2.293 2.293-2.293 2.293c-0.391 0.391-0.391 1.024 0 1.414s1.024 0.391 1.414 0l2.293-2.293 2.293 2.293c0.391 0.391 1.024 0.391 1.414 0s0.391-1.024 0-1.414l-2.293-2.293 2.293-2.293c0.391-0.391 0.391-1.024 0-1.414s-1.024-0.391-1.414 0z"></path>
</symbol>
</defs>
</svg>
